<?xml version="1.0" encoding="UTF-8"?>
<svg version="1.1" xmlns="http://www.w3.org/2000/svg" width="419" height="236">
<path d="M0 0 C5.06378198 4.79726714 7.16771258 10.14068873 7.625 17 C7.52463237 23.74972314 4.76809028 30.18104967 0.375 35.25 C-6.94726422 40.7021378 -14.73575455 41.51117441 -23.625 40.25 C-28.83833593 38.63537102 -33.11769994 36.51631363 -36.25 31.9375 C-36.70375 31.050625 -37.1575 30.16375 -37.625 29.25 C-37.93953125 29.80429688 -38.2540625 30.35859375 -38.578125 30.9296875 C-39.00609375 31.65414062 -39.4340625 32.37859375 -39.875 33.125 C-40.50148437 34.20394531 -40.50148437 34.20394531 -41.140625 35.3046875 C-42.90886974 37.62201876 -43.89515061 38.22505372 -46.625 39.25 C-49.17079511 39.42986025 -51.6037434 39.50297207 -54.14746094 39.47705078 C-55.2748745 39.47748886 -55.2748745 39.47748886 -56.42506409 39.47793579 C-58.90328616 39.47654519 -61.3812056 39.46099684 -63.859375 39.4453125 C-65.58001542 39.44158141 -67.30065797 39.43873489 -69.02130127 39.43673706 C-73.54557176 39.42910818 -78.06971344 39.40946608 -82.59393311 39.3873291 C-87.21234393 39.36685464 -91.8307756 39.35773192 -96.44921875 39.34765625 C-105.50787814 39.32621947 -114.5664082 39.29104339 -123.625 39.25 C-123.625 34.3 -123.625 29.35 -123.625 24.25 C-126.925 24.25 -130.225 24.25 -133.625 24.25 C-133.625 29.2 -133.625 34.15 -133.625 39.25 C-138.575 39.25 -143.525 39.25 -148.625 39.25 C-148.625 29.02 -148.625 18.79 -148.625 8.25 C-151.595 8.25 -154.565 8.25 -157.625 8.25 C-157.625 18.48 -157.625 28.71 -157.625 39.25 C-162.575 39.25 -167.525 39.25 -172.625 39.25 C-172.625 29.02 -172.625 18.79 -172.625 8.25 C-176.585 8.25 -180.545 8.25 -184.625 8.25 C-184.72265625 -1.02734375 -184.72265625 -1.02734375 -184.625 -3.75 C-183.625 -4.75 -183.625 -4.75 -181.60655212 -4.87025452 C-180.72052811 -4.86803391 -179.83450409 -4.86581329 -178.92163086 -4.86352539 C-177.92066879 -4.86344986 -176.91970673 -4.86337433 -175.88841248 -4.86329651 C-174.7998848 -4.85813522 -173.71135712 -4.85297394 -172.58984375 -4.84765625 C-170.9272628 -4.84553383 -170.9272628 -4.84553383 -169.23109436 -4.84336853 C-165.67486931 -4.83775033 -162.11870617 -4.82519475 -158.5625 -4.8125 C-156.15820403 -4.80748734 -153.75390708 -4.80292403 -151.34960938 -4.79882812 C-145.44138223 -4.78777499 -139.53320163 -4.77049816 -133.625 -4.75 C-133.625 0.2 -133.625 5.15 -133.625 10.25 C-130.325 10.25 -127.025 10.25 -123.625 10.25 C-123.625 5.3 -123.625 0.35 -123.625 -4.75 C-114.09750178 -4.81788199 -104.57016522 -4.87287727 -95.04247952 -4.90543652 C-90.61799036 -4.92106639 -86.1936758 -4.94225549 -81.76928711 -4.97631836 C-77.49637711 -5.00900769 -73.22363464 -5.02687316 -68.95060921 -5.03463173 C-67.32358222 -5.0401581 -65.696564 -5.05094974 -64.06960869 -5.06719017 C-61.78375589 -5.08909225 -59.49858798 -5.09196168 -57.21264648 -5.09057617 C-55.91358871 -5.09723801 -54.61453094 -5.10389984 -53.27610779 -5.11076355 C-48.37247779 -4.62623911 -44.31463139 -3.38512715 -40.6875 0.125 C-39.41759443 2.66481113 -39.39133133 4.44597598 -39.625 7.25 C-38.965 7.25 -38.305 7.25 -37.625 7.25 C-37.46 6.54875 -37.295 5.8475 -37.125 5.125 C-34.60876337 0.30221312 -30.48270182 -2.62128474 -25.44921875 -4.609375 C-16.03218948 -7.08489957 -7.99865895 -5.3324393 0 0 Z M-93.625 8.25 C-93.625 9.24 -93.625 10.23 -93.625 11.25 C-89.335 11.58 -85.045 11.91 -80.625 12.25 C-80.625 15.88 -80.625 19.51 -80.625 23.25 C-87.06 23.745 -87.06 23.745 -93.625 24.25 C-93.625 24.91 -93.625 25.57 -93.625 26.25 C-88.015 26.25 -82.405 26.25 -76.625 26.25 C-76.625 20.31 -76.625 14.37 -76.625 8.25 C-82.235 8.25 -87.845 8.25 -93.625 8.25 Z M-61.625 8.25 C-61.625 9.24 -61.625 10.23 -61.625 11.25 C-59.645 11.25 -57.665 11.25 -55.625 11.25 C-55.295 10.26 -54.965 9.27 -54.625 8.25 C-56.935 8.25 -59.245 8.25 -61.625 8.25 Z M-24.625 14.25 C-25.14249792 17.93717269 -25.0840889 20.22380129 -23.5625 23.625 C-20.65826481 26.06081016 -18.36542509 26.18550991 -14.625 26.25 C-11.67744268 24.90437601 -10.08222728 24.16445456 -8.625 21.25 C-8.12987319 16.87637986 -8.13276134 14.93044756 -10.75 11.3125 C-13.46267184 9.07256334 -13.46267184 9.07256334 -16.625 8.625 C-20.73203441 9.48063217 -22.17901113 10.86878009 -24.625 14.25 Z M-41.625 15.25 C-40.625 17.25 -40.625 17.25 -40.625 17.25 Z M-61.625 23.25 C-61.625 24.57 -61.625 25.89 -61.625 27.25 C-58.985 27.25 -56.345 27.25 -53.625 27.25 C-53.625 26.26 -53.625 25.27 -53.625 24.25 C-54.80924326 22.83422523 -54.80924326 22.83422523 -58.1875 23.1875 C-59.8890625 23.2184375 -59.8890625 23.2184375 -61.625 23.25 Z " fill="#0F0F0F" transform="translate(200.625,97.75)"/>
<path d="M0 0 C3.10126901 0.04399446 3.10126901 0.04399446 6.58203125 -0.31640625 C17.7111346 -1.07586572 17.7111346 -1.07586572 21.31640625 1.93359375 C22.7857071 4.23513018 23.90895066 6.50230853 25 9 C25.99 9.99 25.99 9.99 27 11 C27.34434082 10.22406494 27.68868164 9.44812988 28.04345703 8.64868164 C32.20152147 0.66660311 32.20152147 0.66660311 37.05761719 -1.13330078 C40.72498899 -1.59576294 44.18041808 -1.67582484 47.875 -1.5625 C49.13538086 -1.54896484 50.39576172 -1.53542969 51.69433594 -1.52148438 C61.90836238 -0.95835874 61.90836238 -0.95835874 65.8359375 3.16015625 C68.24803922 6.53771557 69.73429527 10.06225194 71 14 C71.33 9.38 71.66 4.76 72 0 C76.95 0 81.9 0 87 0 C87.33 3.63 87.66 7.26 88 11 C88.825 9.9275 89.65 8.855 90.5 7.75 C95.49868986 2.00731909 100.47406776 -0.04089164 108 -0.875 C114.87042595 -1.24801555 119.8041301 -0.09793495 126 3 C126 8.28 126 13.56 126 19 C122 17 122 17 120.1875 15.9375 C114.47729834 13.49027072 109.73443515 13.82091464 104 16 C102.39317945 19.2136411 102.53849492 22.51460341 103 26 C104.20495919 28.70558862 104.20495919 28.70558862 107 30 C114.84538163 31.50322093 120.27112143 28.84507347 127 25 C127 30.28 127 35.56 127 41 C119.45080547 46.03279636 111.73630299 45.86655637 103 45 C96.50513018 43.42064641 92.771596 40.42166926 89 35 C88.67 34.34 88.34 33.68 88 33 C87.67 36.63 87.34 40.26 87 44 C82.22689771 44.5296182 77.75309218 44.78423371 73 44 C69.98094446 41.44499459 68.61250393 38.55882445 67 35 C66.01 33.35 65.02 31.7 64 30 C63.67 34.62 63.34 39.24 63 44 C58.05 44 53.1 44 48 44 C47.67 32.12 47.34 20.24 47 8 C37.8434052 21.01200314 33.45756711 28.13383798 34 44 C29.05 44 24.1 44 19 44 C19.103125 41.628125 19.20625 39.25625 19.3125 36.8125 C19.18450421 24.73501011 11.69003122 15.5186397 5 6 C4.67 9.63 4.34 13.26 4 17 C2.11197917 16.21875 0.22395833 15.4375 -1.6640625 14.65625 C-4.50772446 13.85736169 -7.0607633 13.89893742 -10 14 C-9.18015625 14.37511719 -8.3603125 14.75023438 -7.515625 15.13671875 C-6.43796875 15.64847656 -5.3603125 16.16023438 -4.25 16.6875 C-3.18265625 17.18636719 -2.1153125 17.68523437 -1.015625 18.19921875 C2.85622486 20.5112949 5.32836844 22.88968225 6.71484375 27.24609375 C7.23554483 32.37088856 7.06333666 35.60921745 4 40 C-2.73807303 46.08070005 -8.81372682 45.17359104 -17.39990234 45.02832031 C-20.11807111 44.99871397 -22.8326394 45.02725541 -25.55078125 45.0546875 C-39.41829155 45.01237902 -39.41829155 45.01237902 -43.88671875 42.15234375 C-45.61476472 40.16491563 -46.89744073 38.38435232 -48 36 C-48.22429687 36.5775 -48.44859375 37.155 -48.6796875 37.75 C-50.20631351 40.62364896 -51.31043011 42.1073397 -54 44 C-59.90020405 45.09013294 -66.05677979 44.44854492 -72 44 C-70.62416025 41.0884719 -69.04666973 38.51234472 -67.1796875 35.890625 C-66.64472656 35.13652344 -66.10976562 34.38242188 -65.55859375 33.60546875 C-64.72521484 32.43951172 -64.72521484 32.43951172 -63.875 31.25 C-63.03001953 30.06083984 -63.03001953 30.06083984 -62.16796875 28.84765625 C-60.78111545 26.89665924 -59.39172386 24.94752412 -58 23 C-60.9183809 17.50000411 -63.97023535 12.46250251 -67.8125 7.5625 C-72 2.2137031 -72 2.2137031 -72 0 C-56.76961751 -1.06850122 -56.76961751 -1.06850122 -52.53515625 1.48828125 C-50.47066115 3.92630359 -49 5.74262466 -49 9 C-45.52526626 5.75121398 -45.52526626 5.75121398 -42.90625 1.84375 C-40.18940439 -0.78401871 -38.00601071 -0.41048812 -34.33789062 -0.3515625 C-33.08782227 -0.30128906 -33.08782227 -0.30128906 -31.8125 -0.25 C-30.96751953 -0.23195313 -30.12253906 -0.21390625 -29.25195312 -0.1953125 C-27.16748427 -0.14820586 -25.08359856 -0.07646233 -23 0 C-27.69012377 7.57748121 -32.6776357 14.85282508 -38 22 C-37.06398754 23.41764994 -36.1261208 24.83407568 -35.1875 26.25 C-34.40439453 27.43335938 -34.40439453 27.43335938 -33.60546875 28.640625 C-32.12865878 30.81092481 -30.59310127 32.91413768 -29 35 C-28.67 32.36 -28.34 29.72 -28 27 C-27.11957031 27.27714844 -26.23914063 27.55429688 -25.33203125 27.83984375 C-24.17058594 28.20207031 -23.00914062 28.56429687 -21.8125 28.9375 C-20.66394531 29.29714844 -19.51539063 29.65679687 -18.33203125 30.02734375 C-15.55646994 30.83756036 -12.84312452 31.49134307 -10 32 C-10 31.34 -10 30.68 -10 30 C-10.825 29.773125 -11.65 29.54625 -12.5 29.3125 C-17.69348742 27.36494222 -22.22992504 24.93601949 -26 20.8125 C-27.53893091 16.48425681 -27.74061107 12.53079714 -27 8 C-24.51570837 3.44546535 -22.27894237 1.80884958 -17.4375 0.0625 C-11.51229332 -1.46773356 -5.99542722 -0.75741318 0 0 Z " fill="#0C0C0C" transform="translate(276,93)"/>
<path d="M0 0 C5.92294029 2.71279708 10.06654491 7.26397575 12.546875 13.3125 C13.45284222 20.68665179 13.04241789 27.22509275 8.546875 33.3125 C3.69404465 38.30013119 -2.47975719 40.4127083 -9.328125 40.875 C-15.36576587 40.67933571 -19.82350579 38.0449718 -24.453125 34.3125 C-29.30269586 28.97669248 -29.85961987 23.34589336 -29.80078125 16.39453125 C-29.13298356 10.47439221 -26.14895954 6.88424908 -21.890625 2.9375 C-15.1722034 -1.54144774 -7.86885137 -2.20528319 0 0 Z M-16.453125 16.3125 C-16.97062292 19.99967269 -16.9122139 22.28630129 -15.390625 25.6875 C-12.48638981 28.12331016 -10.19355009 28.24800991 -6.453125 28.3125 C-3.50556768 26.96687601 -1.91035228 26.22695456 -0.453125 23.3125 C0.04200181 18.93887986 0.03911366 16.99294756 -2.578125 13.375 C-5.29079684 11.13506334 -5.29079684 11.13506334 -8.453125 10.6875 C-12.56015941 11.54313217 -14.00713613 12.93128009 -16.453125 16.3125 Z " fill="#F8F8F8" transform="translate(192.453125,95.6875)"/>
<path d="M0 0 C4.00125 -0.0825 8.0025 -0.165 12.125 -0.25 C13.37555176 -0.28641602 14.62610352 -0.32283203 15.91455078 -0.36035156 C22.21486752 -0.42328368 26.29259657 -0.39792016 31 4 C32.53214888 7.06429776 32.22938548 9.6165642 32 13 C30.5 15.9375 30.5 15.9375 29 18 C29.66 18.66 30.32 19.32 31 20 C33.55982857 23.83974285 33.74665803 26.5109462 33 31 C31.20628927 35.24826225 29.07390329 36.95998419 25 39 C22.13745117 39.34057617 22.13745117 39.34057617 19.04296875 39.29296875 C18.04031982 39.28547607 17.0376709 39.2779834 16.00463867 39.27026367 C14.74498291 39.24295166 13.48532715 39.21563965 12.1875 39.1875 C8.165625 39.125625 4.14375 39.06375 0 39 C0 26.13 0 13.26 0 0 Z M12 10 C12 10.99 12 11.98 12 13 C13.98 13 15.96 13 18 13 C18.33 12.01 18.66 11.02 19 10 C16.69 10 14.38 10 12 10 Z M12 25 C12 26.32 12 27.64 12 29 C14.64 29 17.28 29 20 29 C20 28.01 20 27.02 20 26 C18.81575674 24.58422523 18.81575674 24.58422523 15.4375 24.9375 C13.7359375 24.9684375 13.7359375 24.9684375 12 25 Z " fill="#F9F9F9" transform="translate(127,96)"/>
<path d="M0 0 C3.3 0 6.6 0 10 0 C12.31645916 2.32626082 13.38107433 3.70000568 14.8125 6.5 C15.15474609 7.10070312 15.49699219 7.70140625 15.84960938 8.3203125 C16.92049968 10.20187677 17.95992174 12.10123004 19 14 C20.65 16.64 22.3 19.28 24 22 C24.33 14.74 24.66 7.48 25 0 C28.3 0 31.6 0 35 0 C35 13.2 35 26.4 35 40 C24 40 24 40 21.55786133 37.98046875 C21.0708374 37.05878906 20.58381348 36.13710937 20.08203125 35.1875 C19.25541992 33.69863281 19.25541992 33.69863281 18.41210938 32.1796875 C17.88423828 31.13039063 17.35636719 30.08109375 16.8125 29 C16.24208984 27.95070313 15.67167969 26.90140625 15.08398438 25.8203125 C13.68483294 23.23364598 12.33724193 20.61920836 11 18 C10.67 25.26 10.34 32.52 10 40 C6.7 40 3.4 40 0 40 C0 26.8 0 13.6 0 0 Z " fill="#F4F4F4" transform="translate(326,95)"/>
<path d="M0 0 C3.3 0 6.6 0 10 0 C10 5.28 10 10.56 10 16 C15.28 16 20.56 16 26 16 C26 10.72 26 5.44 26 0 C29.3 0 32.6 0 36 0 C36 13.2 36 26.4 36 40 C32.7 40 29.4 40 26 40 C26 34.72 26 29.44 26 24 C20.72 24 15.44 24 10 24 C10 29.28 10 34.56 10 40 C6.7 40 3.4 40 0 40 C0 26.8 0 13.6 0 0 Z " fill="#F6F6F6" transform="translate(54,95)"/>
<path d="M0 0 C3.80549399 -0.55740509 7.21477097 -0.76617907 11 0 C14.05103735 2.57724144 16.1367329 5.47696255 18 9 C18 9.66 18 10.32 18 11 C18.66 11 19.32 11 20 11 C20.226875 10.484375 20.45375 9.96875 20.6875 9.4375 C21.3371875 8.2309375 21.3371875 8.2309375 22 7 C22.28359375 6.39800781 22.5671875 5.79601562 22.859375 5.17578125 C24.07779887 2.99939368 25.04278227 1.56491197 27 0 C30.73498921 -0.60496304 34.25029824 -0.41371491 38 0 C36.30266765 5.28936127 32.8666021 9.07378855 29.28125 13.18359375 C27.7176768 15.01482618 27.7176768 15.01482618 26 18 C26.69618887 22.79596778 30.73814867 26.94726945 33.625 30.75 C39 37.8853125 39 37.8853125 39 39 C34.84686823 39.61376332 31.12672611 39.87068254 27 39 C24.51406198 36.61604918 22.99559844 34.27579725 21.3046875 31.28515625 C20.20748173 28.87248813 20.20748173 28.87248813 18 28 C17.773125 28.515625 17.54625 29.03125 17.3125 29.5625 C16.6628125 30.7690625 16.6628125 30.7690625 16 32 C15.72800781 32.60199219 15.45601562 33.20398438 15.17578125 33.82421875 C13.95720996 36.05751112 13.02685754 37.4378996 11 39 C6.93802716 39.60903113 3.07618766 39.4095691 -1 39 C-0.14751605 37.70722214 0.70713073 36.41587059 1.5625 35.125 C2.10003906 34.30773437 2.63757813 33.49046875 3.19140625 32.6484375 C4.42079418 30.84816749 5.70225439 29.08260409 7.02734375 27.3515625 C7.67832031 26.49304688 8.32929688 25.63453125 9 24.75 C9.928125 23.56664062 9.928125 23.56664062 10.875 22.359375 C12.26132349 20.06605989 12.26132349 20.06605989 11.5078125 17.65625 C9.52780463 14.16815323 7.26031586 10.97051048 4.875 7.75 C0 1.11570248 0 1.11570248 0 0 Z " fill="#F9F9F9" transform="translate(209,96)"/>
<path d="M0 0 C9.24 0 18.48 0 28 0 C28 2.64 28 5.28 28 8 C22.06 8 16.12 8 10 8 C10 10.31 10 12.62 10 15 C14.29 15 18.58 15 23 15 C23 17.64 23 20.28 23 23 C18.71 23 14.42 23 10 23 C10 25.64 10 28.28 10 31 C15.94 31 21.88 31 28 31 C28 33.64 28 36.28 28 39 C18.76 39 9.52 39 0 39 C0 26.13 0 13.26 0 0 Z " fill="#FBFBFB" transform="translate(95,96)"/>
<path d="M0 0 C1.29550781 -0.02578125 2.59101563 -0.0515625 3.92578125 -0.078125 C7.88333975 0.2670826 10.29204069 1.24957436 13.6875 3.25 C13.6875 6.22 13.6875 9.19 13.6875 12.25 C12.388125 11.92 11.08875 11.59 9.75 11.25 C0.91534049 9.32958639 0.91534049 9.32958639 -7.3125 12.125 C-10.61681828 15.63583817 -10.70198117 18.31429794 -10.671875 22.98828125 C-10.10193134 26.57520929 -8.11023951 28.11838894 -5.3125 30.25 C-1.26564619 32.27342691 3.79155804 31.78723561 8.05859375 30.578125 C9.95795373 29.8603633 11.82650743 29.06206948 13.6875 28.25 C13.6875 31.55 13.6875 34.85 13.6875 38.25 C6.77824009 42.10633111 -1.06239725 42.68184621 -8.71875 40.59375 C-13.66134641 38.3885916 -17.4210746 34.81224907 -20.3125 30.25 C-22.36171665 24.36635956 -22.52898708 16.59009598 -20.40625 10.76171875 C-15.6317664 2.63591494 -9.12897068 0.10835574 0 0 Z " fill="#F7F7F7" transform="translate(386.3125,94.75)"/>
<path d="M0 0 C1.11246094 -0.00515625 2.22492188 -0.0103125 3.37109375 -0.015625 C6.509509 0.24558949 8.73085425 0.91621546 11.5625 2.25 C11.5625 5.22 11.5625 8.19 11.5625 11.25 C10.53125 10.92 9.5 10.59 8.4375 10.25 C4.41351722 9.0991246 0.43525956 8.31362022 -3.4375 10.25 C-3.3825071 12.17154509 -3.3825071 12.17154509 -2.4375 14.25 C0.18915857 15.91310907 0.18915857 15.91310907 3.375 17.25 C7.50041707 19.09915162 10.73590004 20.64945006 13.5625 24.25 C14.49108417 28.33723268 13.92647201 32.20358047 12.5625 36.125 C8.87727761 40.04054879 4.76453749 41.06529437 -0.41796875 41.5 C-5.78224838 41.60661922 -10.45295589 41.46535294 -15.4375 39.25 C-15.4375 36.28 -15.4375 33.31 -15.4375 30.25 C-14.48875 30.415 -13.54 30.58 -12.5625 30.75 C-7.8611123 31.43541792 -3.17746714 31.33583441 1.5625 31.25 C1.5625 29.93 1.5625 28.61 1.5625 27.25 C0.75425781 26.88648437 -0.05398438 26.52296875 -0.88671875 26.1484375 C-12.26992988 20.7932477 -12.26992988 20.7932477 -15.4375 15.25 C-16.04982322 11.82098997 -16.23122143 9.61557584 -14.4453125 6.54296875 C-10.18004185 1.09878789 -6.7377109 -0.03115704 0 0 Z " fill="#F7F7F7" transform="translate(266.4375,94.75)"/>
<path d="M0 0 C3.60402474 -0.8640797 6.43493627 -1.11597604 10 0 C13.37983314 4.000729 15.69613828 8.31505215 18 13 C20.51886494 9.99734471 22.41583809 7.22748977 24.0625 3.6875 C25.296875 1.60546875 25.296875 1.60546875 27 0 C30.7521127 -0.69424684 34.22868579 -0.47554225 38 0 C37.17188123 1.56526994 36.33702839 3.12697632 35.5 4.6875 C34.68982422 6.20150391 34.68982422 6.20150391 33.86328125 7.74609375 C32 11 32 11 29.85546875 14.09765625 C23.97850296 22.64308218 22.77485814 28.82640211 23 39 C19.7 39 16.4 39 13 39 C13.03222656 38.030625 13.06445312 37.06125 13.09765625 36.0625 C13.12424217 24.32481722 9.32160958 16.68337381 3 7 C0 2.2510917 0 2.2510917 0 0 Z " fill="#F7F7F7" transform="translate(284,96)"/>
<path d="M0 0 C10.56 0 21.12 0 32 0 C32 2.64 32 5.28 32 8 C28.37 8 24.74 8 21 8 C21 18.23 21 28.46 21 39 C17.7 39 14.4 39 11 39 C11 28.77 11 18.54 11 8 C7.37 8 3.74 8 0 8 C0 5.36 0 2.72 0 0 Z " fill="#FCFCFC" transform="translate(19,96)"/>
<path d="M0 0 C3.6578218 2.03993908 5.66946174 3.50419262 8 7 C8.43145362 12.35002483 8.45651329 15.64735364 5 20 C0.74548345 22.83634436 -3.00822671 22.74836793 -8 22 C-11.21245432 19.96763094 -12.53214044 18.5149738 -13.65625 14.875 C-14.40074815 10.63708746 -14.24313886 8.49528286 -12.3125 4.5625 C-8.50680001 0.34537298 -5.71040449 -0.68524854 0 0 Z M-11 8 C-11.51749792 11.68717269 -11.4590889 13.97380129 -9.9375 17.375 C-7.03326481 19.81081016 -4.74042509 19.93550991 -1 20 C1.94755732 18.65437601 3.54277272 17.91445456 5 15 C5.49512681 10.62637986 5.49223866 8.68044756 2.875 5.0625 C0.16232816 2.82256334 0.16232816 2.82256334 -3 2.375 C-7.10703441 3.23063217 -8.55401113 4.61878009 -11 8 Z " fill="#111111" transform="translate(187,104)"/>
<path d="M0 0 C0.66 0.33 1.32 0.66 2 1 C1.505 1.66 1.01 2.32 0.5 3 C-1.55875722 7.11751444 -1.50971845 9.41253398 -1 14 C0.22435155 16.64237846 0.22435155 16.64237846 3 18 C5.59835116 18.41489801 8.12868781 18.62514226 10.7578125 18.7265625 C13 19 13 19 15 21 C10.93486443 22.35504519 7.25054768 22.53675858 3 22 C-0.8026029 19.9949912 -2.61790841 18.57313738 -5 15 C-5.69039779 11.1846438 -5.87062073 7.49249268 -3.87890625 4.078125 C-2.5 2.4375 -2.5 2.4375 0 0 Z " fill="#161616" transform="translate(380,105)"/>
<path d="M0 0 C5.94 0 11.88 0 18 0 C11.85714286 9.85714286 11.85714286 9.85714286 7 12 C8.51325083 8.85709443 10.188065 6.01989166 12 3 C7.71 3 3.42 3 -1 3 C-0.67 2.01 -0.34 1.02 0 0 Z " fill="#161616" transform="translate(235,93)"/>
<path d="M0 0 C1.62463842 -0.05395478 3.24978541 -0.09277195 4.875 -0.125 C5.77992188 -0.14820312 6.68484375 -0.17140625 7.6171875 -0.1953125 C10 0 10 0 12 2 C11.44444444 6.55555556 11.44444444 6.55555556 10 8 C8.31391034 8.07205511 6.62499341 8.08386068 4.9375 8.0625 C4.01839844 8.05347656 3.09929687 8.04445313 2.15234375 8.03515625 C1.44207031 8.02355469 0.73179687 8.01195313 0 8 C0 5.36 0 2.72 0 0 Z M2 3 C2 3.99 2 4.98 2 6 C3.98 6 5.96 6 8 6 C8.33 5.01 8.66 4.02 9 3 C6.69 3 4.38 3 2 3 Z " fill="#070707" transform="translate(137,103)"/>
<path d="M0 0 C1.79133978 -0.05391993 3.58313899 -0.09275571 5.375 -0.125 C6.37273437 -0.14820312 7.37046875 -0.17140625 8.3984375 -0.1953125 C11 0 11 0 13 2 C13.1875 4.5625 13.1875 4.5625 13 7 C12 8 12 8 9.27734375 8.09765625 C7.62412109 8.08025391 7.62412109 8.08025391 5.9375 8.0625 C4.83277344 8.05347656 3.72804687 8.04445313 2.58984375 8.03515625 C1.30787109 8.01775391 1.30787109 8.01775391 0 8 C0 5.36 0 2.72 0 0 Z M2 2 C2 3.32 2 4.64 2 6 C4.64 6 7.28 6 10 6 C10 5.01 10 4.02 10 3 C8.81575674 1.58422523 8.81575674 1.58422523 5.4375 1.9375 C3.7359375 1.9684375 3.7359375 1.9684375 2 2 Z " fill="#020202" transform="translate(137,119)"/>
<path d="M0 0 C0 0.33 0 0.66 0 1 C-0.79664063 1.17015625 -1.59328125 1.3403125 -2.4140625 1.515625 C-8.45218278 2.89660628 -13.13687619 4.13444005 -18 8 C-18.99 8.66 -19.98 9.32 -21 10 C-21 8.68 -21 7.36 -21 6 C-15.17512031 0.79478836 -7.83917252 -2.52876533 0 0 Z " fill="#040404" transform="translate(187,93)"/>
<path d="M0 0 C0.66 0.33 1.32 0.66 2 1 C0.68 2.32 -0.64 3.64 -2 5 C-2.99 4.67 -3.98 4.34 -5 4 C-3.36587557 2.29159719 -2.13093906 1.06546953 0 0 Z " fill="#111111" transform="translate(196,132)"/>
</svg>
