<?xml version="1.0" encoding="UTF-8"?>
<svg version="1.1" xmlns="http://www.w3.org/2000/svg" width="419" height="236">
<path d="M0 0 C5.06378198 4.79726714 7.16771258 10.14068873 7.625 17 C7.52463237 23.74972314 4.76809028 30.18104967 0.375 35.25 C-6.94726422 40.7021378 -14.73575455 41.51117441 -23.625 40.25 C-28.83833593 38.63537102 -33.11769994 36.51631363 -36.25 31.9375 C-36.70375 31.050625 -37.1575 30.16375 -37.625 29.25 C-37.93953125 29.80429688 -38.2540625 30.35859375 -38.578125 30.9296875 C-39.00609375 31.65414062 -39.4340625 32.37859375 -39.875 33.125 C-40.50148437 34.20394531 -40.50148437 34.20394531 -41.140625 35.3046875 C-42.90886974 37.62201876 -43.89515061 38.22505372 -46.625 39.25 C-49.17079511 39.42986025 -51.6037434 39.50297207 -54.14746094 39.47705078 C-55.2748745 39.47748886 -55.2748745 39.47748886 -56.42506409 39.47793579 C-58.90328616 39.47654519 -61.3812056 39.46099684 -63.859375 39.4453125 C-65.58001542 39.44158141 -67.30065797 39.43873489 -69.02130127 39.43673706 C-73.54557176 39.42910818 -78.06971344 39.40946608 -82.59393311 39.3873291 C-87.21234393 39.36685464 -91.8307756 39.35773192 -96.44921875 39.34765625 C-105.50787814 39.32621947 -114.5664082 39.29104339 -123.625 39.25 C-123.625 34.3 -123.625 29.35 -123.625 24.25 C-126.925 24.25 -130.225 24.25 -133.625 24.25 C-133.625 29.2 -133.625 34.15 -133.625 39.25 C-138.575 39.25 -143.525 39.25 -148.625 39.25 C-148.625 29.02 -148.625 18.79 -148.625 8.25 C-151.595 8.25 -154.565 8.25 -157.625 8.25 C-157.625 18.48 -157.625 28.71 -157.625 39.25 C-162.575 39.25 -167.525 39.25 -172.625 39.25 C-172.625 29.02 -172.625 18.79 -172.625 8.25 C-176.585 8.25 -180.545 8.25 -184.625 8.25 C-184.72265625 -1.02734375 -184.72265625 -1.02734375 -184.625 -3.75 C-183.625 -4.75 -183.625 -4.75 -181.60655212 -4.87025452 C-180.72052811 -4.86803391 -179.83450409 -4.86581329 -178.92163086 -4.86352539 C-177.92066879 -4.86344986 -176.91970673 -4.86337433 -175.88841248 -4.86329651 C-174.7998848 -4.85813522 -173.71135712 -4.85297394 -172.58984375 -4.84765625 C-170.9272628 -4.84553383 -170.9272628 -4.84553383 -169.23109436 -4.84336853 C-165.67486931 -4.83775033 -162.11870617 -4.82519475 -158.5625 -4.8125 C-156.15820403 -4.80748734 -153.75390708 -4.80292403 -151.34960938 -4.79882812 C-145.44138223 -4.78777499 -139.53320163 -4.77049816 -133.625 -4.75 C-133.625 0.2 -133.625 5.15 -133.625 10.25 C-130.325 10.25 -127.025 10.25 -123.625 10.25 C-123.625 5.3 -123.625 0.35 -123.625 -4.75 C-114.09750178 -4.81788199 -104.57016522 -4.87287727 -95.04247952 -4.90543652 C-90.61799036 -4.92106639 -86.1936758 -4.94225549 -81.76928711 -4.97631836 C-77.49637711 -5.00900769 -73.22363464 -5.02687316 -68.95060921 -5.03463173 C-67.32358222 -5.0401581 -65.696564 -5.05094974 -64.06960869 -5.06719017 C-61.78375589 -5.08909225 -59.49858798 -5.09196168 -57.21264648 -5.09057617 C-55.91358871 -5.09723801 -54.61453094 -5.10389984 -53.27610779 -5.11076355 C-48.37247779 -4.62623911 -44.31463139 -3.38512715 -40.6875 0.125 C-39.41759443 2.66481113 -39.39133133 4.44597598 -39.625 7.25 C-38.965 7.25 -38.305 7.25 -37.625 7.25 C-37.46 6.54875 -37.295 5.8475 -37.125 5.125 C-34.60876337 0.30221312 -30.48270182 -2.62128474 -25.44921875 -4.609375 C-16.03218948 -7.08489957 -7.99865895 -5.3324393 0 0 Z M-93.625 8.25 C-93.625 9.24 -93.625 10.23 -93.625 11.25 C-89.335 11.58 -85.045 11.91 -80.625 12.25 C-80.625 15.88 -80.625 19.51 -80.625 23.25 C-87.06 23.745 -87.06 23.745 -93.625 24.25 C-93.625 24.91 -93.625 25.57 -93.625 26.25 C-88.015 26.25 -82.405 26.25 -76.625 26.25 C-76.625 20.31 -76.625 14.37 -76.625 8.25 C-82.235 8.25 -87.845 8.25 -93.625 8.25 Z M-61.625 8.25 C-61.625 9.24 -61.625 10.23 -61.625 11.25 C-59.645 11.25 -57.665 11.25 -55.625 11.25 C-55.295 10.26 -54.965 9.27 -54.625 8.25 C-56.935 8.25 -59.245 8.25 -61.625 8.25 Z M-24.625 14.25 C-25.14249792 17.93717269 -25.0840889 20.22380129 -23.5625 23.625 C-20.65826481 26.06081016 -18.36542509 26.18550991 -14.625 26.25 C-11.67744268 24.90437601 -10.08222728 24.16445456 -8.625 21.25 C-8.12987319 16.87637986 -8.13276134 14.93044756 -10.75 11.3125 C-13.46267184 9.07256334 -13.46267184 9.07256334 -16.625 8.625 C-20.73203441 9.48063217 -22.17901113 10.86878009 -24.625 14.25 Z M-41.625 15.25 C-40.625 17.25 -40.625 17.25 -40.625 17.25 Z M-61.625 23.25 C-61.625 24.57 -61.625 25.89 -61.625 27.25 C-58.985 27.25 -56.345 27.25 -53.625 27.25 C-53.625 26.26 -53.625 25.27 -53.625 24.25 C-54.80924326 22.83422523 -54.80924326 22.83422523 -58.1875 23.1875 C-59.8890625 23.2184375 -59.8890625 23.2184375 -61.625 23.25 Z " fill="#F4F4F4" transform="translate(200.625,97.75)"/>
<path d="M0 0 C3.10126901 0.04399446 3.10126901 0.04399446 6.58203125 -0.31640625 C17.7111346 -1.07586572 17.7111346 -1.07586572 21.31640625 1.93359375 C22.7857071 4.23513018 23.90895066 6.50230853 25 9 C25.99 9.99 25.99 9.99 27 11 C27.34434082 10.22406494 27.68868164 9.44812988 28.04345703 8.64868164 C32.20152147 0.66660311 32.20152147 0.66660311 37.05761719 -1.13330078 C40.72498899 -1.59576294 44.18041808 -1.67582484 47.875 -1.5625 C49.13538086 -1.54896484 50.39576172 -1.53542969 51.69433594 -1.52148438 C61.90836238 -0.95835874 61.90836238 -0.95835874 65.8359375 3.16015625 C68.24803922 6.53771557 69.73429527 10.06225194 71 14 C71.33 9.38 71.66 4.76 72 0 C76.95 0 81.9 0 87 0 C87.33 3.63 87.66 7.26 88 11 C88.825 9.9275 89.65 8.855 90.5 7.75 C95.49868986 2.00731909 100.47406776 -0.04089164 108 -0.875 C114.87042595 -1.24801555 119.8041301 -0.09793495 126 3 C126 8.28 126 13.56 126 19 C122 17 122 17 120.1875 15.9375 C114.47729834 13.49027072 109.73443515 13.82091464 104 16 C102.39317945 19.2136411 102.53849492 22.51460341 103 26 C104.20495919 28.70558862 104.20495919 28.70558862 107 30 C114.84538163 31.50322093 120.27112143 28.84507347 127 25 C127 30.28 127 35.56 127 41 C119.45080547 46.03279636 111.73630299 45.86655637 103 45 C96.50513018 43.42064641 92.771596 40.42166926 89 35 C88.67 34.34 88.34 33.68 88 33 C87.67 36.63 87.34 40.26 87 44 C82.22689771 44.5296182 77.75309218 44.78423371 73 44 C69.98094446 41.44499459 68.61250393 38.55882445 67 35 C66.01 33.35 65.02 31.7 64 30 C63.67 34.62 63.34 39.24 63 44 C58.05 44 53.1 44 48 44 C47.67 32.12 47.34 20.24 47 8 C37.8434052 21.01200314 33.45756711 28.13383798 34 44 C29.05 44 24.1 44 19 44 C19.103125 41.628125 19.20625 39.25625 19.3125 36.8125 C19.18450421 24.73501011 11.69003122 15.5186397 5 6 C4.67 9.63 4.34 13.26 4 17 C2.11197917 16.21875 0.22395833 15.4375 -1.6640625 14.65625 C-4.50772446 13.85736169 -7.0607633 13.89893742 -10 14 C-9.18015625 14.37511719 -8.3603125 14.75023438 -7.515625 15.13671875 C-6.43796875 15.64847656 -5.3603125 16.16023438 -4.25 16.6875 C-3.18265625 17.18636719 -2.1153125 17.68523437 -1.015625 18.19921875 C2.85622486 20.5112949 5.32836844 22.88968225 6.71484375 27.24609375 C7.23554483 32.37088856 7.06333666 35.60921745 4 40 C-2.73807303 46.08070005 -8.81372682 45.17359104 -17.39990234 45.02832031 C-20.11807111 44.99871397 -22.8326394 45.02725541 -25.55078125 45.0546875 C-39.41829155 45.01237902 -39.41829155 45.01237902 -43.88671875 42.15234375 C-45.61476472 40.16491563 -46.89744073 38.38435232 -48 36 C-48.22429687 36.5775 -48.44859375 37.155 -48.6796875 37.75 C-50.20631351 40.62364896 -51.31043011 42.1073397 -54 44 C-59.90020405 45.09013294 -66.05677979 44.44854492 -72 44 C-70.62416025 41.0884719 -69.04666973 38.51234472 -67.1796875 35.890625 C-66.64472656 35.13652344 -66.10976562 34.38242188 -65.55859375 33.60546875 C-64.72521484 32.43951172 -64.72521484 32.43951172 -63.875 31.25 C-63.03001953 30.06083984 -63.03001953 30.06083984 -62.16796875 28.84765625 C-60.78111545 26.89665924 -59.39172386 24.94752412 -58 23 C-60.9183809 17.50000411 -63.97023535 12.46250251 -67.8125 7.5625 C-72 2.2137031 -72 2.2137031 -72 0 C-56.76961751 -1.06850122 -56.76961751 -1.06850122 -52.53515625 1.48828125 C-50.47066115 3.92630359 -49 5.74262466 -49 9 C-45.52526626 5.75121398 -45.52526626 5.75121398 -42.90625 1.84375 C-40.18940439 -0.78401871 -38.00601071 -0.41048812 -34.33789062 -0.3515625 C-33.08782227 -0.30128906 -33.08782227 -0.30128906 -31.8125 -0.25 C-30.96751953 -0.23195313 -30.12253906 -0.21390625 -29.25195312 -0.1953125 C-27.16748427 -0.14820586 -25.08359856 -0.07646233 -23 0 C-27.69012377 7.57748121 -32.6776357 14.85282508 -38 22 C-37.06398754 23.41764994 -36.1261208 24.83407568 -35.1875 26.25 C-34.40439453 27.43335938 -34.40439453 27.43335938 -33.60546875 28.640625 C-32.12865878 30.81092481 -30.59310127 32.91413768 -29 35 C-28.67 32.36 -28.34 29.72 -28 27 C-27.11957031 27.27714844 -26.23914063 27.55429688 -25.33203125 27.83984375 C-24.17058594 28.20207031 -23.00914062 28.56429687 -21.8125 28.9375 C-20.66394531 29.29714844 -19.51539063 29.65679687 -18.33203125 30.02734375 C-15.55646994 30.83756036 -12.84312452 31.49134307 -10 32 C-10 31.34 -10 30.68 -10 30 C-10.825 29.773125 -11.65 29.54625 -12.5 29.3125 C-17.69348742 27.36494222 -22.22992504 24.93601949 -26 20.8125 C-27.53893091 16.48425681 -27.74061107 12.53079714 -27 8 C-24.51570837 3.44546535 -22.27894237 1.80884958 -17.4375 0.0625 C-11.51229332 -1.46773356 -5.99542722 -0.75741318 0 0 Z " fill="#F4F4F5" transform="translate(276,93)"/>
<path d="M0 0 C5.92294029 2.71279708 10.06654491 7.26397575 12.546875 13.3125 C13.45284222 20.68665179 13.04241789 27.22509275 8.546875 33.3125 C4.02067587 37.96442688 -1.98578476 40.40796859 -8.453125 40.6875 C-14.92046524 40.40796859 -20.92692587 37.96442688 -25.453125 33.3125 C-29.37620734 28.00026063 -30.13663248 22.7352831 -29.90625 16.21875 C-29.00382347 10.43077297 -26.09431091 6.83359913 -21.890625 2.9375 C-15.1722034 -1.54144774 -7.86885137 -2.20528319 0 0 Z M-16.453125 16.3125 C-16.97062292 19.99967269 -16.9122139 22.28630129 -15.390625 25.6875 C-12.48638981 28.12331016 -10.19355009 28.24800991 -6.453125 28.3125 C-3.50556768 26.96687601 -1.91035228 26.22695456 -0.453125 23.3125 C0.04200181 18.93887986 0.03911366 16.99294756 -2.578125 13.375 C-5.29079684 11.13506334 -5.29079684 11.13506334 -8.453125 10.6875 C-12.56015941 11.54313217 -14.00713613 12.93128009 -16.453125 16.3125 Z " fill="#332D3C" transform="translate(192.453125,95.6875)"/>
<path d="M0 0 C6.0328125 -0.0928125 6.0328125 -0.0928125 12.1875 -0.1875 C14.07698364 -0.22846802 14.07698364 -0.22846802 16.00463867 -0.27026367 C17.50861206 -0.28150269 17.50861206 -0.28150269 19.04296875 -0.29296875 C20.06414795 -0.3086792 21.08532715 -0.32438965 22.13745117 -0.34057617 C25.48707631 0.05795066 27.30316765 1.00170773 30 3 C32.48386059 6.72579089 32.3804212 8.58711402 32 13 C30.5 15.9375 30.5 15.9375 29 18 C29.66 18.66 30.32 19.32 31 20 C33.55982857 23.83974285 33.74665803 26.5109462 33 31 C31.20628927 35.24826225 29.07390329 36.95998419 25 39 C22.13745117 39.34057617 22.13745117 39.34057617 19.04296875 39.29296875 C18.04031982 39.28547607 17.0376709 39.2779834 16.00463867 39.27026367 C14.74498291 39.24295166 13.48532715 39.21563965 12.1875 39.1875 C8.165625 39.125625 4.14375 39.06375 0 39 C0 26.13 0 13.26 0 0 Z M12 10 C12 10.99 12 11.98 12 13 C13.98 13 15.96 13 18 13 C18.33 12.01 18.66 11.02 19 10 C16.69 10 14.38 10 12 10 Z M12 25 C12 26.32 12 27.64 12 29 C14.64 29 17.28 29 20 29 C20 28.01 20 27.02 20 26 C18.81575674 24.58422523 18.81575674 24.58422523 15.4375 24.9375 C13.7359375 24.9684375 13.7359375 24.9684375 12 25 Z " fill="#312B3A" transform="translate(127,96)"/>
<path d="M0 0 C10 0 10 0 12.20507812 1.6965332 C12.64271484 2.47343506 13.08035156 3.25033691 13.53125 4.05078125 C14.03140625 4.89447266 14.5315625 5.73816406 15.046875 6.60742188 C15.52640625 7.50009766 16.0059375 8.39277344 16.5 9.3125 C17.01046875 10.19357422 17.5209375 11.07464844 18.046875 11.98242188 C18.99158329 13.61701583 19.92112315 15.26054092 20.83007812 16.9152832 C21.80754132 18.65705245 22.89209909 20.33814863 24 22 C24.33 14.74 24.66 7.48 25 0 C28.3 0 31.6 0 35 0 C35 13.2 35 26.4 35 40 C24 40 24 40 21.55786133 37.98046875 C21.0708374 37.05878906 20.58381348 36.13710937 20.08203125 35.1875 C19.25541992 33.69863281 19.25541992 33.69863281 18.41210938 32.1796875 C17.88423828 31.13039063 17.35636719 30.08109375 16.8125 29 C16.24208984 27.95070313 15.67167969 26.90140625 15.08398438 25.8203125 C13.68483294 23.23364598 12.33724193 20.61920836 11 18 C10.67 25.26 10.34 32.52 10 40 C6.7 40 3.4 40 0 40 C0 26.8 0 13.6 0 0 Z " fill="#37313F" transform="translate(326,95)"/>
<path d="M0 0 C3.3 0 6.6 0 10 0 C10 5.28 10 10.56 10 16 C15.28 16 20.56 16 26 16 C26 10.72 26 5.44 26 0 C29.3 0 32.6 0 36 0 C36 13.2 36 26.4 36 40 C32.7 40 29.4 40 26 40 C26 34.72 26 29.44 26 24 C20.72 24 15.44 24 10 24 C10 29.28 10 34.56 10 40 C6.7 40 3.4 40 0 40 C0 26.8 0 13.6 0 0 Z " fill="#35303E" transform="translate(54,95)"/>
<path d="M0 0 C3.80549399 -0.55740509 7.21477097 -0.76617907 11 0 C14.05103735 2.57724144 16.1367329 5.47696255 18 9 C18 9.66 18 10.32 18 11 C19.95859166 9.1864892 21.70870881 7.53556294 22.9921875 5.17578125 C24.17976404 3.03901032 25.11285433 1.57117862 27 0 C30.73430633 -0.60656106 34.25085764 -0.41365319 38 0 C36.30266765 5.28936127 32.8666021 9.07378855 29.28125 13.18359375 C27.7176768 15.01482618 27.7176768 15.01482618 26 18 C26.69618887 22.79596778 30.73814867 26.94726945 33.625 30.75 C39 37.8853125 39 37.8853125 39 39 C34.84686823 39.61376332 31.12672611 39.87068254 27 39 C24.51406198 36.61604918 22.99559844 34.27579725 21.3046875 31.28515625 C20.20748173 28.87248813 20.20748173 28.87248813 18 28 C17.773125 28.515625 17.54625 29.03125 17.3125 29.5625 C16.6628125 30.7690625 16.6628125 30.7690625 16 32 C15.71640625 32.60199219 15.4328125 33.20398438 15.140625 33.82421875 C13.92220113 36.00060632 12.95721773 37.43508803 11 39 C7.26501079 39.60496304 3.74970176 39.41371491 0 39 C1.72731693 33.65829734 5.06912525 29.9457245 8.63085938 25.72851562 C10.16726019 23.88212158 10.16726019 23.88212158 12 21 C11.64675197 17.8294997 10.31677187 15.71408599 8.49609375 13.14453125 C8.00302734 12.44005859 7.50996094 11.73558594 7.00195312 11.00976562 C6.48568359 10.28466797 5.96941406 9.55957031 5.4375 8.8125 C4.41342511 7.36204448 3.39118385 5.91029199 2.37109375 4.45703125 C1.6893811 3.4976062 1.6893811 3.4976062 0.99389648 2.51879883 C0 1 0 1 0 0 Z " fill="#322C3B" transform="translate(209,96)"/>
<path d="M0 0 C9.24 0 18.48 0 28 0 C28 2.64 28 5.28 28 8 C22.06 8 16.12 8 10 8 C10 10.31 10 12.62 10 15 C14.29 15 18.58 15 23 15 C23 17.64 23 20.28 23 23 C18.71 23 14.42 23 10 23 C10 25.64 10 28.28 10 31 C15.94 31 21.88 31 28 31 C28 33.64 28 36.28 28 39 C18.76 39 9.52 39 0 39 C0 26.13 0 13.26 0 0 Z " fill="#312B3A" transform="translate(95,96)"/>
<path d="M0 0 C1.29550781 -0.02578125 2.59101563 -0.0515625 3.92578125 -0.078125 C7.88333975 0.2670826 10.29204069 1.24957436 13.6875 3.25 C13.6875 6.22 13.6875 9.19 13.6875 12.25 C12.57375 11.92 11.46 11.59 10.3125 11.25 C5.44211663 10.05619377 0.67494171 9.53016305 -4.3125 10.25 C-7.24673195 12.04646854 -8.78455355 13.1941071 -10.3125 16.25 C-10.73321592 19.30920574 -10.79764117 22.1967746 -10.3125 25.25 C-8.13090855 28.00569447 -6.44072506 29.68588747 -3.3125 31.25 C3.05708763 31.93717543 7.86426862 30.79104642 13.6875 28.25 C13.6875 31.55 13.6875 34.85 13.6875 38.25 C6.3732513 41.12773719 -0.87257537 42.96787093 -8.61328125 40.5234375 C-13.82534658 38.10880836 -18.22859716 34.96167213 -20.41796875 29.484375 C-22.08498836 23.45689799 -22.58645952 16.72194976 -20.40234375 10.76953125 C-15.65287213 2.62976156 -9.11920298 0.1082398 0 0 Z " fill="#332D3C" transform="translate(386.3125,94.75)"/>
<path d="M0 0 C1.11246094 -0.00515625 2.22492188 -0.0103125 3.37109375 -0.015625 C6.509509 0.24558949 8.73085425 0.91621546 11.5625 2.25 C11.5625 5.22 11.5625 8.19 11.5625 11.25 C10.53125 10.92 9.5 10.59 8.4375 10.25 C4.41351722 9.0991246 0.43525956 8.31362022 -3.4375 10.25 C-3.3825071 12.17154509 -3.3825071 12.17154509 -2.4375 14.25 C0.18915857 15.91310907 0.18915857 15.91310907 3.375 17.25 C7.50410323 19.10080388 10.72312343 20.65704481 13.5625 24.25 C14.53751473 27.94833173 14.35710262 31.6506509 12.64453125 35.09765625 C9.81998947 38.8180074 7.07261241 40.39903539 2.5625 41.25 C-3.81436852 41.7430016 -9.32144549 41.0621643 -15.4375 39.25 C-15.4375 36.28 -15.4375 33.31 -15.4375 30.25 C-14.74269531 30.41371094 -14.04789063 30.57742187 -13.33203125 30.74609375 C-10.2022184 31.29095996 -7.29951917 31.34738483 -4.125 31.3125 C-3.05636719 31.30347656 -1.98773438 31.29445313 -0.88671875 31.28515625 C0.32564453 31.26775391 0.32564453 31.26775391 1.5625 31.25 C1.5625 29.93 1.5625 28.61 1.5625 27.25 C0.74265625 26.86328125 -0.0771875 26.4765625 -0.921875 26.078125 C-1.99953125 25.55734375 -3.0771875 25.0365625 -4.1875 24.5 C-5.25484375 23.98953125 -6.3221875 23.4790625 -7.421875 22.953125 C-11.05915694 20.89890878 -13.75594139 19.11496136 -15.22265625 15.1015625 C-15.94852003 9.2742054 -15.94852003 9.2742054 -14.515625 6.40234375 C-10.28072464 1.08257694 -6.59023521 -0.03047508 0 0 Z " fill="#332D3C" transform="translate(266.4375,94.75)"/>
<path d="M0 0 C3.60402474 -0.8640797 6.43493627 -1.11597604 10 0 C13.37983314 4.000729 15.69613828 8.31505215 18 13 C20.75530866 10.58910492 21.94648471 8.09477468 23.5 4.8125 C25.0390625 2.12109375 25.0390625 2.12109375 27 0 C30.79676785 -0.8733612 34.17410931 -0.61268712 38 0 C37.17188123 1.56526994 36.33702839 3.12697632 35.5 4.6875 C34.68982422 6.20150391 34.68982422 6.20150391 33.86328125 7.74609375 C32 11 32 11 29.85546875 14.09765625 C23.97850296 22.64308218 22.77485814 28.82640211 23 39 C19.7 39 16.4 39 13 39 C13.06703125 38.00484375 13.1340625 37.0096875 13.203125 35.984375 C13.53133099 22.89577398 8.38856721 14.37473454 1.08569336 3.79321289 C0 2 0 2 0 0 Z " fill="#342E3C" transform="translate(284,96)"/>
<path d="M0 0 C10.56 0 21.12 0 32 0 C32 2.64 32 5.28 32 8 C28.37 8 24.74 8 21 8 C21 18.23 21 28.46 21 39 C17.7 39 14.4 39 11 39 C11 28.77 11 18.54 11 8 C7.37 8 3.74 8 0 8 C0 5.36 0 2.72 0 0 Z " fill="#302A39" transform="translate(19,96)"/>
<path d="M0 0 C3.6578218 2.03993908 5.66946174 3.50419262 8 7 C8.48384204 11.91906075 8.51355236 14.05848735 6.125 18.4375 C3.89845684 21.1224491 3.17341724 21.85462087 -0.20703125 22.2734375 C-4.64853303 22.4465695 -7.23116635 22.48640496 -11.0625 20.0625 C-13.59714012 16.05613335 -14.43318022 12.73166086 -14 8 C-12.39419955 4.728925 -11.05370218 2.77271493 -8.125 0.625 C-5.18891172 -0.23855538 -3.05485074 -0.36658209 0 0 Z M-11 8 C-11.51749792 11.68717269 -11.4590889 13.97380129 -9.9375 17.375 C-7.03326481 19.81081016 -4.74042509 19.93550991 -1 20 C1.94755732 18.65437601 3.54277272 17.91445456 5 15 C5.49512681 10.62637986 5.49223866 8.68044756 2.875 5.0625 C0.16232816 2.82256334 0.16232816 2.82256334 -3 2.375 C-7.10703441 3.23063217 -8.55401113 4.61878009 -11 8 Z " fill="#F1F1F2" transform="translate(187,104)"/>
<path d="M0 0 C0.66 0.33 1.32 0.66 2 1 C1.505 1.66 1.01 2.32 0.5 3 C-1.55875722 7.11751444 -1.50971845 9.41253398 -1 14 C0.22435155 16.64237846 0.22435155 16.64237846 3 18 C5.59835116 18.41489801 8.12868781 18.62514226 10.7578125 18.7265625 C13 19 13 19 15 21 C10.93486443 22.35504519 7.25054768 22.53675858 3 22 C-0.8026029 19.9949912 -2.61790841 18.57313738 -5 15 C-5.69039779 11.1846438 -5.87062073 7.49249268 -3.87890625 4.078125 C-2.5 2.4375 -2.5 2.4375 0 0 Z " fill="#EEEEEF" transform="translate(380,105)"/>
<path d="M0 0 C1.97909398 -0.02686553 3.95828971 -0.04633375 5.9375 -0.0625 C7.03964844 -0.07410156 8.14179688 -0.08570312 9.27734375 -0.09765625 C12 0 12 0 13 1 C13.25 3.9375 13.25 3.9375 13 7 C9.68629 9.20914 8.6553979 9.22481553 4.8125 9.125 C3.91144531 9.10695312 3.01039063 9.08890625 2.08203125 9.0703125 C1.39496094 9.04710937 0.70789063 9.02390625 0 9 C0 6.03 0 3.06 0 0 Z M2 2 C2 3.32 2 4.64 2 6 C4.64 6 7.28 6 10 6 C10 5.01 10 4.02 10 3 C8.81575674 1.58422523 8.81575674 1.58422523 5.4375 1.9375 C3.7359375 1.9684375 3.7359375 1.9684375 2 2 Z " fill="#EEEEEF" transform="translate(137,119)"/>
<path d="M0 0 C1.62463842 -0.05395478 3.24978541 -0.09277195 4.875 -0.125 C5.77992188 -0.14820312 6.68484375 -0.17140625 7.6171875 -0.1953125 C10 0 10 0 12 2 C11.44444444 6.55555556 11.44444444 6.55555556 10 8 C8.31391034 8.07205511 6.62499341 8.08386068 4.9375 8.0625 C4.01839844 8.05347656 3.09929687 8.04445313 2.15234375 8.03515625 C1.44207031 8.02355469 0.73179687 8.01195313 0 8 C0 5.36 0 2.72 0 0 Z M2 3 C2 3.99 2 4.98 2 6 C3.98 6 5.96 6 8 6 C8.33 5.01 8.66 4.02 9 3 C6.69 3 4.38 3 2 3 Z " fill="#F9F9FA" transform="translate(137,103)"/>
</svg>
